<svg xmlns="http://www.w3.org/2000/svg" width="160" height="160" viewBox="0 0 160 160">
  <g id="Play" transform="translate(0)">
    <path id="Path_2245" data-name="Path 2245" d="M206.775,156.378l-57.992,33.479a6.125,6.125,0,0,1-9.2-5.311V117.579a6.125,6.125,0,0,1,9.2-5.311l57.992,33.479A6.146,6.146,0,0,1,206.775,156.378Z" transform="translate(-88.205 -71.063)" fill="#fff" fill-rule="evenodd"/>
    <path id="Path_2246" data-name="Path 2246" d="M80,0A80,80,0,1,1,0,80,80,80,0,0,1,80,0Zm0,9.309A70.691,70.691,0,1,0,150.691,80,70.688,70.688,0,0,0,80,9.309Z" transform="translate(0 0)" fill="#fff"/>
  </g>
</svg>
