<svg xmlns="http://www.w3.org/2000/svg" xmlns:xlink="http://www.w3.org/1999/xlink" width="96.601" height="104.675" viewBox="0 0 96.601 104.675">
  <defs>
    <linearGradient id="linear-gradient" x1="0.5" x2="0.5" y2="1" gradientUnits="objectBoundingBox">
      <stop offset="0" stop-color="#2385d9"/>
      <stop offset="1" stop-color="#0ec9b0"/>
    </linearGradient>
  </defs>
  <g id="Person" transform="translate(-199 -46)">
    <g id="user" transform="translate(199 54.073)">
      <ellipse id="Ellipse_5" data-name="Ellipse 5" cx="48.3" cy="48.301" rx="48.3" ry="48.301" transform="translate(0 0)" fill="#e8eff7"/>
      <path id="person-2" data-name="person" d="M108.882,107.763c-.842-3.718-5.647-5.53-7.307-6.115a54.486,54.486,0,0,0-6.091-1.169,6.189,6.189,0,0,1-2.818-1.3c-.468-.561-.187-5.764-.187-5.764a17.342,17.342,0,0,0,1.333-2.537,32.726,32.726,0,0,0,.982-4.431s.959,0,1.3-1.684c.362-1.836.935-2.549.865-3.917-.07-1.345-.807-1.31-.807-1.31a20.5,20.5,0,0,0,.8-6C97.05,68.735,93.285,64,86.469,64c-6.91,0-10.593,4.735-10.488,9.541a21.382,21.382,0,0,0,.783,6s-.737-.035-.807,1.31c-.07,1.368.5,2.081.865,3.917.327,1.684,1.3,1.684,1.3,1.684A32.725,32.725,0,0,0,79.1,90.88a17.342,17.342,0,0,0,1.333,2.537s.281,5.2-.187,5.764a6.189,6.189,0,0,1-2.818,1.3,54.485,54.485,0,0,0-6.091,1.169c-1.66.585-6.466,2.4-7.307,6.115a.935.935,0,0,0,.924,1.134H107.97A.933.933,0,0,0,108.882,107.763Z" transform="translate(-37.916 -40.762)" fill="#d5d5d5"/>
    </g>
    <path id="ios-quote" d="M9.1,0H3.866A3.877,3.877,0,0,0,0,3.866V14.175a3.877,3.877,0,0,0,3.866,3.866H6.983a.648.648,0,0,1,.644.693A9.824,9.824,0,0,1,5.106,24.7a.645.645,0,0,0,.475,1.079H8.795a.626.626,0,0,0,.507-.25,12.457,12.457,0,0,0,2.3-7.563V2.5A2.441,2.441,0,0,0,9.1,0ZM23.276,0H18.041a3.877,3.877,0,0,0-3.866,3.866V14.175a3.877,3.877,0,0,0,3.866,3.866h3.117a.648.648,0,0,1,.644.693A9.824,9.824,0,0,1,19.281,24.7a.645.645,0,0,0,.475,1.079H22.97a.626.626,0,0,0,.507-.25,12.457,12.457,0,0,0,2.3-7.563V2.5A2.441,2.441,0,0,0,23.276,0Z" transform="translate(236.632 71.78) rotate(180)" fill="url(#linear-gradient)"/>
  </g>
</svg>
